<svg xmlns="http://www.w3.org/2000/svg" xmlns:xlink="http://www.w3.org/1999/xlink" width="500" zoomAndPan="magnify" viewBox="0 0 375 374.999991" height="500" preserveAspectRatio="xMidYMid meet" version="1.0"><defs><clipPath id="ddb227a453"><path d="M 25.140625 0 L 358.890625 0 L 358.890625 375 L 25.140625 375 Z M 25.140625 0 " clip-rule="nonzero"/></clipPath><clipPath id="dd9c59e11a"><path d="M 211 0 L 333.539062 0 L 333.539062 123 L 211 123 Z M 211 0 " clip-rule="nonzero"/></clipPath><clipPath id="2c012802e8"><path d="M 0.140625 220 L 105 220 L 105 326 L 0.140625 326 Z M 0.140625 220 " clip-rule="nonzero"/></clipPath><clipPath id="2c32091878"><rect x="0" width="334" y="0" height="375"/></clipPath></defs><g clip-path="url(#ddb227a453)"><g transform="matrix(1, 0, 0, 1, 25, 0)"><g clip-path="url(#2c32091878)"><g clip-path="url(#dd9c59e11a)"><path fill="#545454" d="M 272.804688 122.328125 C 239.199219 122.328125 211.859375 94.988281 211.859375 61.382812 C 211.859375 27.78125 239.199219 0.441406 272.804688 0.441406 C 306.410156 0.441406 333.75 27.78125 333.75 61.382812 C 333.75 94.988281 306.410156 122.328125 272.804688 122.328125 Z M 272.804688 17.257812 C 248.472656 17.257812 228.675781 37.050781 228.675781 61.382812 C 228.675781 85.714844 248.46875 105.511719 272.804688 105.511719 C 297.136719 105.511719 316.933594 85.71875 316.933594 61.382812 C 316.933594 37.054688 297.132812 17.257812 272.804688 17.257812 Z M 272.804688 17.257812 " fill-opacity="1" fill-rule="nonzero"/></g><g clip-path="url(#2c012802e8)"><path fill="#545454" d="M 52.652344 220.453125 C 81.488281 220.453125 104.953125 243.917969 104.953125 272.753906 C 104.953125 301.589844 81.488281 325.050781 52.652344 325.050781 C 23.816406 325.050781 0.351562 301.589844 0.351562 272.753906 C 0.351562 243.917969 23.816406 220.453125 52.652344 220.453125 Z M 52.652344 308.238281 C 72.21875 308.238281 88.136719 292.320312 88.136719 272.757812 C 88.136719 253.191406 72.21875 237.273438 52.652344 237.273438 C 33.085938 237.273438 17.167969 253.191406 17.167969 272.757812 C 17.167969 292.316406 33.085938 308.238281 52.652344 308.238281 Z M 52.652344 308.238281 " fill-opacity="1" fill-rule="nonzero"/></g><path fill="#1800ad" d="M 112.691406 86.808594 C 97.140625 86.808594 84.484375 74.152344 84.484375 58.601562 C 84.484375 43.050781 97.140625 30.394531 112.691406 30.394531 C 128.246094 30.394531 140.898438 43.050781 140.898438 58.601562 C 140.898438 74.152344 128.25 86.808594 112.691406 86.808594 Z M 112.691406 47.210938 C 106.410156 47.210938 101.304688 52.320312 101.304688 58.601562 C 101.304688 64.882812 106.410156 69.992188 112.691406 69.992188 C 118.972656 69.992188 124.082031 64.882812 124.082031 58.601562 C 124.082031 52.320312 118.972656 47.210938 112.691406 47.210938 Z M 112.691406 47.210938 " fill-opacity="1" fill-rule="nonzero"/><path fill="#1800ad" d="M 259.984375 209.066406 C 259.984375 193.515625 272.640625 180.867188 288.191406 180.867188 C 303.742188 180.867188 316.398438 193.515625 316.398438 209.066406 C 316.398438 224.621094 303.742188 237.273438 288.191406 237.273438 C 272.640625 237.273438 259.984375 224.621094 259.984375 209.066406 Z M 299.582031 209.066406 C 299.582031 202.789062 294.472656 197.679688 288.191406 197.679688 C 281.910156 197.679688 276.800781 202.789062 276.800781 209.066406 C 276.800781 215.347656 281.910156 220.457031 288.191406 220.457031 C 294.472656 220.457031 299.582031 215.347656 299.582031 209.066406 Z M 299.582031 209.066406 " fill-opacity="1" fill-rule="nonzero"/><path fill="#1800ad" d="M 272.804688 317.726562 C 288.355469 317.726562 301.011719 330.382812 301.011719 345.933594 C 301.011719 361.484375 288.355469 374.140625 272.804688 374.140625 C 257.253906 374.140625 244.597656 361.484375 244.597656 345.933594 C 244.597656 330.382812 257.253906 317.726562 272.804688 317.726562 Z M 272.804688 357.324219 C 279.085938 357.324219 284.191406 352.214844 284.191406 345.933594 C 284.191406 339.652344 279.085938 334.542969 272.804688 334.542969 C 266.523438 334.542969 261.414062 339.652344 261.414062 345.933594 C 261.414062 352.214844 266.523438 357.324219 272.804688 357.324219 Z M 272.804688 357.324219 " fill-opacity="1" fill-rule="nonzero"/><path fill="#545454" d="M 96.984375 234.226562 C 94.023438 230.648438 94.523438 225.351562 98.101562 222.390625 L 123.636719 201.242188 C 121.152344 196.1875 119.71875 190.523438 119.71875 184.519531 C 119.71875 170.910156 126.910156 158.984375 137.671875 152.238281 L 120.164062 100.394531 C 118.675781 96 121.039062 91.226562 125.441406 89.738281 C 129.847656 88.253906 134.613281 90.613281 136.09375 95.015625 L 153.539062 146.671875 C 154.945312 146.511719 156.371094 146.414062 157.820312 146.414062 C 164.996094 146.414062 171.695312 148.445312 177.433594 151.910156 L 209.460938 112.613281 C 212.402344 109.015625 217.695312 108.472656 221.292969 111.40625 C 224.890625 114.339844 225.429688 119.640625 222.5 123.238281 L 189.625 163.578125 C 193.265625 169.085938 195.480469 175.589844 195.832031 182.585938 L 248.457031 194.191406 C 252.992188 195.195312 255.855469 199.683594 254.855469 204.214844 C 253.988281 208.144531 250.511719 210.8125 246.652344 210.8125 C 246.050781 210.8125 245.441406 210.75 244.832031 210.613281 L 192.984375 199.179688 C 190.667969 204.710938 187.074219 209.574219 182.585938 213.421875 L 253.34375 306.707031 C 256.152344 310.40625 255.425781 315.683594 251.722656 318.492188 C 250.207031 319.640625 248.417969 320.199219 246.648438 320.199219 C 244.109375 320.199219 241.59375 319.054688 239.941406 316.875 L 167.476562 221.339844 C 164.386719 222.152344 161.164062 222.625 157.820312 222.625 C 148.886719 222.625 140.679688 219.515625 134.175781 214.347656 L 108.820312 235.34375 C 107.253906 236.648438 105.351562 237.277344 103.464844 237.277344 C 101.046875 237.273438 98.644531 236.234375 96.984375 234.226562 Z M 157.820312 205.804688 C 169.558594 205.804688 179.109375 196.257812 179.109375 184.519531 C 179.109375 172.78125 169.558594 163.234375 157.820312 163.234375 C 146.085938 163.234375 136.535156 172.78125 136.535156 184.519531 C 136.535156 196.257812 146.085938 205.804688 157.820312 205.804688 Z M 157.820312 205.804688 " fill-opacity="1" fill-rule="nonzero"/></g></g></g></svg>